<svg xmlns="http://www.w3.org/2000/svg" height="2048" preserveAspectRatio="none" style="display: block;" version="1.1" viewBox="0 0 2048 2048" width="2048">

<path d="M 556.279 305.378 C 560.225 305.024 564.184 304.828 568.146 304.792 C 611.631 304.26 645.896 320.244 676.62 350.228 L 789.931 462.25 C 806.541 478.428 822.964 494.795 839.198 511.349 C 853.916 526.358 865.66 536.357 876.731 554.508 C 892.378 580.161 901.265 606.164 901.183 636.208 C 900.999 703.917 862.885 737.666 818.637 781.225 C 794.067 805.411 769.954 830.808 745.295 854.841 C 728.538 871.046 722.025 889.751 722.431 912.676 C 722.941 941.563 737.536 956.437 756.181 976.348 C 766.441 987.305 776.802 998.804 787.071 1009.88 C 836.788 1064.43 888.204 1117.4 941.242 1168.72 C 972.26 1198.71 1090.88 1309.23 1126.98 1322.73 C 1143.61 1328.96 1163.09 1326.03 1178.21 1317.09 C 1192.31 1308.74 1203.96 1294.07 1215.45 1282.5 L 1272.96 1224.07 C 1315.33 1180.96 1345.07 1148.87 1411.88 1146.16 C 1451.64 1145.77 1495.13 1164.25 1522.63 1192.33 C 1573.22 1243.98 1623.89 1294.19 1675.1 1345.09 C 1692.44 1362.33 1709.2 1377.78 1722.07 1398.77 C 1737.13 1423.35 1745.25 1451.55 1745.57 1480.38 C 1745.75 1556.46 1693.74 1594.36 1645.79 1642.63 C 1628.75 1660.37 1594.47 1694.83 1575.75 1708.97 C 1512.79 1756.54 1423.29 1787.83 1345.42 1796.46 C 1172.98 1815.57 1033.37 1741.6 902.661 1637.17 C 757.873 1521.49 625.746 1394.45 502.388 1256.42 C 434.746 1180.09 366.764 1101.03 315.698 1012.6 C 232.765 869.152 229.238 700.878 299.383 551.595 C 327.719 491.288 356.427 456.394 404.34 410.35 C 429.75 385.93 456.516 349.92 485.646 330.744 C 506.91 316.937 531.089 308.253 556.279 305.378 z" fill="rgb(70,88,99)" transform="translate(0,0)"></path>
<path d="M 420.19 537.43 C 426.164 539.287 652.854 767.435 673.793 788.297 C 672.44 789.563 671.101 790.843 669.775 792.137 C 619.766 840.949 604.572 914.373 637.005 978.6 C 653.498 1011.26 694.257 1053.96 719.666 1081.43 C 751.991 1116.22 784.797 1150.57 818.074 1184.46 C 854.846 1221.41 892.4 1257.59 930.709 1292.95 C 967.605 1327.49 1029.83 1386.68 1074.03 1409.36 C 1096.63 1421.21 1121.78 1427.35 1147.3 1427.26 C 1194.48 1427.29 1230.49 1406.73 1262.77 1374.13 C 1275.65 1384.56 1292.4 1402.8 1304.69 1415.03 L 1378.5 1488.31 L 1463.67 1573.19 C 1479.89 1589.3 1501.88 1610.04 1516.45 1627.05 C 1510.52 1631.87 1502.95 1636.83 1496.57 1641.23 C 1288.87 1753.31 1128.24 1689.78 954.618 1550.77 C 798.856 1425.52 655.422 1285.67 526.273 1133.13 C 483.619 1082.82 429.432 1015.91 398.558 958.09 C 374.662 912.948 359.349 863.763 353.396 813.034 C 344.642 733.142 356.907 653.523 393.258 581.388 C 400.562 566.896 410 550.095 420.19 537.43 z" fill="rgb(255,255,255)" transform="translate(0,0)"></path>
<path d="M 560.573 407.365 C 587.071 403.986 600.679 411.985 618.748 429.769 C 672.589 482.764 726.154 535.974 780.059 588.913 C 793.917 602.523 800.644 616.283 800.683 636.031 C 800.437 660.237 784.274 675.942 768.491 691.931 C 759.624 700.957 750.571 709.797 741.338 718.448 L 732.64 710.272 C 652.008 629.254 566.302 547.786 484.224 468.03 C 509.156 444.941 528.645 414.613 560.573 407.365 z" fill="rgb(255,255,255)" transform="translate(0,0)"></path>
<path d="M 1409.31 1249.45 C 1441.77 1249.39 1454.22 1265.15 1475.74 1286.79 C 1485.36 1296.47 1495.43 1306.36 1505.12 1316.01 L 1619.1 1428.63 C 1675.69 1485.11 1632.88 1517.73 1590.01 1559.91 C 1586.8 1556.17 1582.84 1552.26 1579.37 1548.68 C 1524.83 1495.37 1470.7 1441.64 1416.97 1387.51 C 1390.16 1360.62 1358.39 1331.58 1333.39 1303.83 C 1358.4 1278.76 1374.47 1254.36 1409.31 1249.45 z" fill="rgb(255,255,255)" transform="translate(0,0)"></path>
<path d="M 1055.1 305.409 C 1085.8 303.76 1118.2 304.864 1148.95 304.614 C 1220.52 304.032 1270.7 303.377 1340.41 322.411 C 1477.55 359.37 1594.43 449.219 1665.41 572.246 C 1708.15 647.2 1732.13 733.411 1735.16 819.616 C 1736.87 868.107 1734.62 917.209 1735.72 965.788 C 1736.1 982.399 1736.68 999.837 1732.15 1015.92 C 1724.72 1042.49 1706.93 1064.95 1682.76 1078.24 C 1650.22 1096.16 1626.12 1092.88 1591.7 1093.68 C 1526.89 1095.17 1474.49 1087.74 1412.46 1069.5 C 1347.34 1049.63 1302.08 1026.96 1244.75 991.527 C 1163.24 1033.32 1073.86 1078.53 991.012 1117.17 C 971.75 1099.79 951.03 1083.42 932.198 1065.44 C 942.991 1039.47 962.483 1002.21 975.111 976.061 L 1057.82 804.783 C 1012.08 746.608 972.322 640.832 961.277 568.195 C 954.152 527.796 954.267 486.723 954.02 445.887 C 953.802 409.939 952.524 379.672 975.528 349.423 C 996.213 322.224 1021.87 310.505 1055.1 305.409 z" fill="rgb(214,7,26)" transform="translate(0,0)"></path>
<path d="M 1056.32 408.008 L 1179.48 408.106 C 1192.35 408.162 1205.22 408.303 1218.09 408.479 C 1324.36 409.931 1433.01 456.119 1507.58 531.768 C 1577.41 602.52 1621.01 694.978 1631.19 793.865 C 1633.7 820.277 1633.14 847.205 1633.13 873.752 L 1632.92 989.724 C 1606.62 990.063 1576.9 990.428 1550.93 989.292 C 1476.54 986.038 1403.16 961.789 1338.08 926.341 C 1319.82 916.397 1277.96 890.955 1262.82 876.76 L 1163.09 921.426 C 1155.73 924.753 1122.05 940.422 1117.23 941.606 C 1111.99 944.641 1103.95 948.395 1098.48 950.919 C 1101.06 945.395 1103.39 940.147 1106.22 934.716 C 1128.61 886.792 1153.8 836.126 1175.24 788.288 C 1106.39 712.036 1064.95 615.004 1057.45 512.548 C 1054.9 479.738 1056.62 441.364 1056.32 408.008 z" fill="rgb(255,255,255)" transform="translate(0,0)"></path>
<path d="M 1098.48 950.919 C 1101.06 945.395 1103.39 940.147 1106.22 934.716 C 1106.33 946.897 1106.15 941.735 1117.23 941.606 C 1111.99 944.641 1103.95 948.395 1098.48 950.919 z" fill="rgb(253,245,236)" transform="translate(0,0)"></path>
<metadata></metadata></svg>